<svg width="129" height="129" viewBox="0 0 129 129" fill="none" xmlns="http://www.w3.org/2000/svg">
<rect x="0.879524" y="0.0494995" width="128" height="128" rx="18" fill="#15803D"/>
<path d="M64.3791 47.3657C64.554 47.2903 64.7427 47.2514 64.9334 47.2514C65.1242 47.2514 65.3128 47.2903 65.4877 47.3657C72.32 50.3172 78.8372 53.9354 84.9423 58.1664C85.1574 58.3155 85.3253 58.522 85.4261 58.7618C85.527 59.0016 85.5569 59.2649 85.5121 59.5208C85.4674 59.7767 85.3499 60.0148 85.1735 60.2073C84.997 60.3997 84.7688 60.5386 84.5155 60.6077C78.1773 62.3378 72.0444 64.7325 66.2211 67.7509L66.2156 67.7546L65.5874 68.0833C65.3865 68.1894 65.1622 68.2449 64.9343 68.2449C64.7065 68.2449 64.4822 68.1894 64.2812 68.0833C61.7846 66.7646 59.228 65.56 56.6195 64.4733V64.0643C56.6195 63.8251 56.7433 63.6115 56.9372 63.4964C59.7259 61.8262 62.5948 60.2906 65.5339 58.895C65.8651 58.7376 66.1195 58.4566 66.2411 58.1138C66.3627 57.771 66.3416 57.3945 66.1823 57.0672C66.0231 56.7398 65.7388 56.4883 65.392 56.3681C65.0451 56.2479 64.6642 56.2688 64.333 56.4262C61.3137 57.8602 58.3665 59.4378 55.5017 61.1537C55.0941 61.398 54.7425 61.7236 54.4693 62.1097C54.1961 62.4957 54.0072 62.9338 53.9147 63.396C51.1086 62.3289 48.2514 61.3983 45.3532 60.6077C45.0999 60.5386 44.8717 60.3997 44.6952 60.2073C44.5187 60.0148 44.4013 59.7767 44.3565 59.5208C44.3118 59.2649 44.3416 59.0016 44.4425 58.7618C44.5434 58.522 44.7112 58.3155 44.9264 58.1664C51.0309 53.9355 57.5475 50.3174 64.3791 47.3657Z" fill="white"/>
<path d="M66.8917 70.4972C71.4298 68.101 76.1684 66.096 81.055 64.5044C81.3026 67.0863 81.4614 69.6956 81.5261 72.3287C81.5329 72.6042 81.4554 72.8754 81.3038 73.1067C81.1521 73.338 80.9334 73.5187 80.6762 73.6251C75.439 75.787 70.4244 78.4421 65.7019 81.5535C65.4743 81.7035 65.2069 81.7835 64.9333 81.7835C64.6598 81.7835 64.3924 81.7035 64.1648 81.5535C59.4428 78.4422 54.4289 75.7871 49.1923 73.6251C48.9347 73.5189 48.7156 73.3384 48.5637 73.107C48.4117 72.8757 48.3339 72.6044 48.3406 72.3287C48.4052 69.6956 48.5641 67.0881 48.8117 64.5026C50.5084 65.0553 52.1879 65.6581 53.8481 66.3103V68.6293C53.4489 68.8566 53.1133 69.1787 52.8718 69.5664C52.6302 69.9541 52.4903 70.3952 52.4646 70.8499C52.4389 71.3045 52.5283 71.7583 52.7247 72.1701C52.9211 72.582 53.2183 72.939 53.5894 73.2088C53.4231 73.9027 53.1793 74.5838 52.856 75.2357C53.691 75.6246 54.5206 76.0281 55.3427 76.4426C55.8063 75.5104 56.1483 74.5238 56.3607 73.5065C56.828 73.3011 57.2286 72.9721 57.5183 72.5557C57.808 72.1393 57.9756 71.6518 58.0023 71.1471C58.0291 70.6425 57.9141 70.1404 57.67 69.6963C57.4259 69.2522 57.0623 68.8836 56.6194 68.6311V67.4533C58.7775 68.3857 60.8977 69.4018 62.9749 70.4991C63.5775 70.8172 64.2502 70.9836 64.9333 70.9836C65.6165 70.9836 66.2891 70.8172 66.8917 70.4991V70.4972Z" fill="white"/>
<path d="M51.0066 77.7811C51.7826 77.016 52.3978 76.1559 52.8542 75.2357C53.6911 75.6246 54.5207 76.0281 55.3428 76.4426C54.7383 77.6561 53.9355 78.7629 52.9669 79.7184C52.84 79.853 52.687 79.9609 52.5171 80.0358C52.3471 80.1106 52.1636 80.1508 51.9776 80.1541C51.7915 80.1573 51.6067 80.1235 51.4342 80.0546C51.2616 79.9858 51.1049 79.8832 50.9733 79.7532C50.8417 79.6231 50.738 79.4682 50.6683 79.2977C50.5986 79.1272 50.5644 78.9445 50.5677 78.7607C50.571 78.5768 50.6117 78.3954 50.6874 78.2274C50.7632 78.0595 50.8723 77.9083 51.0085 77.7829L51.0066 77.7811Z" fill="white"/>
<path d="M64.137 26.3238H66.0038C77.0809 26.6966 87.4169 31.7071 94.3548 40.076C99.8101 46.6563 102.709 54.2815 103.051 62.9515V65.1679C102.663 76.1732 97.5472 86.4328 88.9915 93.2927C82.3443 98.6234 74.6669 101.451 65.9591 101.775H64.1191C62.2672 101.725 60.4292 101.553 58.6052 101.259C57.8179 101.133 57.2483 100.968 56.8964 100.767C54.3139 99.2919 55.1161 95.397 58.0415 94.9682C58.3944 94.9161 58.9247 94.9461 59.6325 95.0581C73.7722 97.2981 87.2589 90.3129 93.5392 77.6807C97.4905 69.7318 97.6978 60.0779 94.249 51.9654C88.5039 38.452 74.3582 30.7433 59.7399 33.023C58.9208 33.1508 58.3368 33.1876 57.9879 33.1336C54.539 32.6045 54.4675 27.6913 57.8716 26.9575C59.5038 26.6048 61.5922 26.3935 64.137 26.3238Z" fill="white"/>
<path d="M46.8748 30.9894C50.1074 30.4456 51.925 34.6013 49.2978 36.6055C49.1368 36.7283 48.7958 36.9479 48.2749 37.2642C44.3892 39.6201 41.1626 42.6446 38.595 46.3375C38.1029 47.0449 37.7217 47.4993 37.4513 47.7007C35.6486 49.0432 33.1168 48.1354 32.4801 46.0369C32.1417 44.9214 32.5055 44.018 33.1914 43.0159C36.3534 38.3906 40.3475 34.6308 45.1735 31.7365C45.8872 31.3082 46.4543 31.0592 46.8748 30.9894Z" fill="#89F3B0"/>
<path d="M26.7083 65.2092V62.8675C26.7988 60.6069 27.0776 58.3743 27.5448 56.1697C27.7138 55.375 27.9116 54.8037 28.1382 54.4559C29.0702 53.0338 31.01 52.6344 32.4728 53.529C33.6388 54.2393 34.1323 55.4727 33.9086 56.8182C33.852 57.1571 33.7899 57.4941 33.7223 57.8291C32.8634 62.0526 32.8664 66.2623 33.7312 70.4583C33.9121 71.3317 33.9887 71.9192 33.9608 72.2208C33.7029 75.1387 29.8023 76.073 28.1681 73.6665C27.9285 73.3138 27.7352 72.7985 27.588 72.1206C27.093 69.8472 26.7998 67.5434 26.7083 65.2092Z" fill="#89F3B0" fill-opacity="0.8"/>
<path d="M49.8062 91.9753C51.764 94.2049 49.678 97.6975 46.751 97.0859C46.3753 97.0083 45.8574 96.7715 45.1973 96.3756C40.1943 93.3792 36.0984 89.4769 32.9095 84.6689C31.4095 82.4068 33.1898 79.57 35.8782 79.7763C37.1218 79.8721 37.7972 80.6089 38.5427 81.6862C41.165 85.4774 44.4598 88.5686 48.427 90.9599C49.1168 91.3755 49.5766 91.7139 49.8062 91.9753Z" fill="#89F3B0" fill-opacity="0.6"/>
</svg>
